# xmcd
#
# Track frame offsets:
#	150
#	15947
#	32440
#	50295
#	65322
#	83662
#	98472
#	112097
#	129030
#	144417
#
# Disc length: 2140 seconds
#
# Revision: 0
# Processed by: cddbd v1.5.2PL0 Copyright (c) Steve Scherf et al.
# Submitted via: audiograbber 1.83.01
#
DISCID=68085a0a
DTITLE=Linda Davis - Some Things Are Meant To Be
DYEAR=1995
DGENRE=Country
TTITLE0=Some Things Are Meant To Be
TTITLE1=Love Story In The Making
TTITLE2=Walk Away
TTITLE3=Always Will
TTITLE4=Neither Of Us
TTITLE5=She Doesn't Ask
TTITLE6=Cast Iron Heart
TTITLE7=There Isn't One
TTITLE8=What Do I Know
TTITLE9=If I Could Live Your Life
EXTD=
EXTT0=
EXTT1=
EXTT2=
EXTT3=
EXTT4=
EXTT5=
EXTT6=
EXTT7=
EXTT8=
EXTT9=
PLAYORDER=
